<svg width="31" height="31" viewBox="0 0 31 31" fill="none" xmlns="http://www.w3.org/2000/svg">
<path d="M29.1968 22.7511H27.8926C26.2586 22.7511 24.9231 21.4156 24.9231 19.7816V11.5013C24.9231 6.36341 20.9008 2.16827 15.8257 1.86974V0.565636C15.8257 0.251394 15.5744 0 15.2601 0C14.9459 0 14.6945 0.251394 14.6945 0.565636V1.88545C9.63517 2.18398 5.59716 6.37912 5.59716 11.517V19.7973C5.59716 21.4313 4.26163 22.7669 2.62757 22.7669H1.81054C0.852102 22.7511 0.050784 23.4739 0.00364762 24.4009C-0.0277766 24.888 0.145057 25.3436 0.475011 25.705C0.804965 26.0507 1.26062 26.2549 1.74769 26.2549H6.11566L11.772 26.7577C11.882 28.596 13.4061 30.0573 15.2601 30.0573C17.1141 30.0573 18.6382 28.596 18.7482 26.7577L24.3417 26.2549H29.2439C29.7624 26.2549 30.2495 26.035 30.5794 25.6265C30.9094 25.2337 31.0508 24.6994 30.9565 24.1967C30.8151 23.3796 30.0452 22.7511 29.1653 22.7511H29.1968ZM29.731 24.9037C29.6053 25.0451 29.4324 25.1237 29.2596 25.1237H24.3103L16.8785 25.7993C15.81 25.8936 14.7416 25.8936 13.6732 25.7993L6.17851 25.1237H1.74769C1.57486 25.1237 1.41774 25.0608 1.29204 24.9351C1.18206 24.8094 1.11921 24.6523 1.11921 24.4795C1.13492 24.1652 1.44916 23.8981 1.81054 23.8981H2.62757C4.89011 23.8981 6.72843 22.0598 6.72843 19.7973V11.517C6.72843 7.0076 10.2479 3.31526 14.6945 3.01673V5.68778C14.6945 6.00203 14.9459 6.25342 15.2601 6.25342C15.5744 6.25342 15.8257 6.00203 15.8257 5.68778V3.01673C20.2566 3.31526 23.7918 7.0076 23.7918 11.517V19.7973C23.7918 22.0598 25.6301 23.8981 27.8926 23.8981H29.1968C29.5267 23.8981 29.8252 24.1181 29.8724 24.4009C29.9038 24.5895 29.8724 24.778 29.731 24.9194V24.9037ZM13.5632 26.9306C14.1288 26.9777 14.6945 27.0091 15.2601 27.0091C15.8257 27.0091 16.4071 26.9777 16.957 26.9306L17.6012 26.8677C17.4441 28.0304 16.4542 28.926 15.2601 28.926C14.066 28.926 13.0761 28.0304 12.919 26.8677L13.5632 26.9306Z" fill="white"/>
</svg>
