<svg width="31" height="30" viewBox="0 0 31 30" fill="none" xmlns="http://www.w3.org/2000/svg">
<path d="M7.06977 29.842C7.06977 29.842 6.95831 29.842 6.89462 29.8104C6.73541 29.7472 6.63987 29.5893 6.63987 29.4313V23.8389H0.573637C0.350731 23.8389 0.159668 23.6493 0.159668 23.4281V3.39658C0.159668 3.17541 0.350731 2.98584 0.573637 2.98584H26.7492C26.9721 2.98584 27.1632 3.17541 27.1632 3.39658V23.4281C27.1632 23.6493 26.9721 23.8389 26.7492 23.8389H13.8206L7.34044 29.7314C7.34044 29.7314 7.1653 29.842 7.05384 29.842H7.06977ZM0.987606 23.0174H7.05384C7.27675 23.0174 7.46781 23.207 7.46781 23.4281V28.4834L13.3748 23.1122C13.3748 23.1122 13.55 23.0016 13.6614 23.0016H26.3352V3.80732H0.987606V23.0016V23.0174Z" fill="white"/>
<path d="M7.06932 30C6.98971 30 6.9101 29.9842 6.84641 29.9526C6.63943 29.8578 6.49613 29.6525 6.49613 29.4313V23.9969H0.573188C0.25475 23.9969 0 23.7441 0 23.4281V3.39659C0 3.08063 0.25475 2.82787 0.573188 2.82787H26.7488C27.0672 2.82787 27.322 3.08063 27.322 3.39659V23.4281C27.322 23.7441 27.0672 23.9969 26.7488 23.9969H13.8839L7.45144 29.842C7.33999 29.9368 7.21261 29.9842 7.06932 29.9842V30ZM0.573188 3.14382C0.429891 3.14382 0.318438 3.25441 0.318438 3.39659V23.4281C0.318438 23.5703 0.429891 23.6809 0.573188 23.6809H6.63943C6.71903 23.6809 6.79864 23.7441 6.79864 23.8389V29.4313C6.79864 29.5261 6.86233 29.6209 6.95786 29.6683C7.05339 29.7156 7.16485 29.684 7.24446 29.6209L13.7247 23.7283C13.7247 23.7283 13.7884 23.6809 13.8361 23.6809H26.7647C26.908 23.6809 27.0194 23.5703 27.0194 23.4281V3.39659C27.0194 3.25441 26.908 3.14382 26.7647 3.14382H0.573188ZM7.48328 28.6414C7.48328 28.6414 7.43552 28.6414 7.4196 28.6414C7.35591 28.6098 7.32407 28.5624 7.32407 28.4992V23.4439C7.32407 23.3018 7.21261 23.1912 7.06932 23.1912H0.987157C0.907547 23.1912 0.827938 23.128 0.827938 23.0332V3.80733C0.827938 3.72834 0.891625 3.64935 0.987157 3.64935H26.3348C26.4144 3.64935 26.494 3.71254 26.494 3.80733V23.0016C26.494 23.0806 26.4303 23.1596 26.3348 23.1596H13.661C13.661 23.1596 13.5336 23.1912 13.4858 23.2228L7.57882 28.594C7.57882 28.594 7.51513 28.6414 7.46736 28.6414H7.48328ZM1.14638 22.8594H7.06932C7.38775 22.8594 7.6425 23.1122 7.6425 23.4281V28.1359L13.2789 23.0016C13.3903 22.9068 13.5177 22.8594 13.661 22.8594H26.1756V3.9653H1.14638V22.8594Z" fill="white"/>
<path d="M30.4269 21.7061H26.749C26.5261 21.7061 26.335 21.5165 26.335 21.2954C26.335 21.0742 26.5261 20.8846 26.749 20.8846H29.9971V0.979458H4.66534V3.39651C4.66534 3.61768 4.47428 3.80726 4.25137 3.80726C4.02846 3.80726 3.8374 3.61768 3.8374 3.39651V0.568716C3.8374 0.347547 4.02846 0.157974 4.25137 0.157974H30.4269C30.6499 0.157974 30.8409 0.347547 30.8409 0.568716V21.2954C30.8409 21.5165 30.6499 21.7061 30.4269 21.7061Z" fill="white"/>
<path d="M30.427 21.8641H26.749C26.4306 21.8641 26.1758 21.6113 26.1758 21.2954C26.1758 20.9794 26.4306 20.7267 26.749 20.7267H29.8538V1.13744H4.8246V3.39652C4.8246 3.71247 4.56985 3.96524 4.25141 3.96524C3.93297 3.96524 3.67822 3.71247 3.67822 3.39652V0.568719C3.67822 0.252764 3.93297 0 4.25141 0H30.427C30.7454 0 31.0002 0.252764 31.0002 0.568719V21.2954C31.0002 21.6113 30.7454 21.8641 30.427 21.8641ZM26.749 21.0426C26.6057 21.0426 26.4943 21.1532 26.4943 21.2954C26.4943 21.4376 26.6057 21.5481 26.749 21.5481H30.427C30.5703 21.5481 30.6817 21.4376 30.6817 21.2954V0.568719C30.6817 0.426539 30.5703 0.315955 30.427 0.315955H4.25141C4.10811 0.315955 3.99666 0.426539 3.99666 0.568719V3.39652C3.99666 3.5387 4.10811 3.64928 4.25141 3.64928C4.39471 3.64928 4.50616 3.5387 4.50616 3.39652V0.979461C4.50616 0.900472 4.56985 0.821483 4.66538 0.821483H30.013C30.0926 0.821483 30.1722 0.884674 30.1722 0.979461V20.8688C30.1722 20.9478 30.1086 21.0268 30.013 21.0268H26.765L26.749 21.0426Z" fill="white"/>
<path d="M23.9468 27.7092C23.8513 27.7092 23.7398 27.6776 23.6602 27.5986L19.4091 23.7282C19.2339 23.5702 19.2339 23.3174 19.3772 23.1437C19.5364 22.9699 19.7912 22.9699 19.9663 23.1121L23.5169 26.3348V23.4122C23.5169 23.1911 23.708 23.0015 23.9309 23.0015C24.1538 23.0015 24.3449 23.1911 24.3449 23.4122V27.2827C24.3449 27.4406 24.2493 27.5986 24.0901 27.6618C24.0423 27.6776 23.9787 27.6934 23.915 27.6934L23.9468 27.7092Z" fill="white"/>
<path d="M23.9463 27.8672C23.803 27.8672 23.6597 27.8198 23.5642 27.725L19.3131 23.8546C19.0742 23.6492 19.0583 23.2858 19.2812 23.0489C19.4882 22.8119 19.8544 22.7961 20.0932 23.0173L23.3891 26.003V23.428C23.3891 23.1121 23.6438 22.8593 23.9623 22.8593C24.2807 22.8593 24.5354 23.1121 24.5354 23.428V27.2985C24.5354 27.5196 24.4081 27.725 24.1852 27.8198C24.1056 27.8514 24.0419 27.8672 23.9463 27.8672ZM19.6952 23.1753C19.6952 23.1753 19.5519 23.2068 19.5041 23.2542C19.4564 23.3016 19.4404 23.3648 19.4404 23.4438C19.4404 23.507 19.4723 23.5702 19.5201 23.6176L23.7712 27.488C23.7712 27.488 23.9623 27.5828 24.0578 27.5354C24.1533 27.488 24.217 27.3933 24.217 27.2985V23.428C24.217 23.2858 24.1056 23.1753 23.9623 23.1753C23.819 23.1753 23.7075 23.2858 23.7075 23.428V26.3506C23.7075 26.3506 23.6757 26.4612 23.612 26.4928C23.5483 26.5244 23.4846 26.4928 23.4368 26.4612L19.8863 23.2384C19.8863 23.2384 19.7748 23.1753 19.7111 23.1753H19.6952Z" fill="white"/>
<path d="M22.8959 9.4154H4.25137C4.02846 9.4154 3.8374 9.22583 3.8374 9.00466C3.8374 8.78349 4.02846 8.59392 4.25137 8.59392H22.8959C23.1188 8.59392 23.3099 8.78349 23.3099 9.00466C23.3099 9.22583 23.1188 9.4154 22.8959 9.4154Z" fill="white"/>
<path d="M22.8959 9.57338H4.25141C3.93297 9.57338 3.67822 9.32062 3.67822 9.00466C3.67822 8.68871 3.93297 8.43594 4.25141 8.43594H22.8959C23.2144 8.43594 23.4691 8.68871 23.4691 9.00466C23.4691 9.32062 23.2144 9.57338 22.8959 9.57338ZM4.25141 8.7519C4.10811 8.7519 3.99666 8.86248 3.99666 9.00466C3.99666 9.14684 4.10811 9.25743 4.25141 9.25743H22.8959C23.0392 9.25743 23.1507 9.14684 23.1507 9.00466C23.1507 8.86248 23.0392 8.7519 22.8959 8.7519H4.25141Z" fill="white"/>
<path d="M22.8959 13.1278H4.25137C4.02846 13.1278 3.8374 12.9383 3.8374 12.7171C3.8374 12.4959 4.02846 12.3064 4.25137 12.3064H22.8959C23.1188 12.3064 23.3099 12.4959 23.3099 12.7171C23.3099 12.9383 23.1188 13.1278 22.8959 13.1278Z" fill="white"/>
<path d="M22.8959 13.2858H4.25141C3.93297 13.2858 3.67822 13.0331 3.67822 12.7171C3.67822 12.4011 3.93297 12.1484 4.25141 12.1484H22.8959C23.2144 12.1484 23.4691 12.4011 23.4691 12.7171C23.4691 13.0331 23.2144 13.2858 22.8959 13.2858ZM4.25141 12.4643C4.10811 12.4643 3.99666 12.5749 3.99666 12.7171C3.99666 12.8593 4.10811 12.9699 4.25141 12.9699H22.8959C23.0392 12.9699 23.1507 12.8593 23.1507 12.7171C23.1507 12.5749 23.0392 12.4643 22.8959 12.4643H4.25141Z" fill="white"/>
<path d="M11.7028 16.8246H4.25137C4.02846 16.8246 3.8374 16.6351 3.8374 16.4139C3.8374 16.1927 4.02846 16.0032 4.25137 16.0032H11.7028C11.9257 16.0032 12.1168 16.1927 12.1168 16.4139C12.1168 16.6351 11.9257 16.8246 11.7028 16.8246Z" fill="white"/>
<path d="M11.7029 16.9826H4.25141C3.93297 16.9826 3.67822 16.7299 3.67822 16.4139C3.67822 16.098 3.93297 15.8452 4.25141 15.8452H11.7029C12.0213 15.8452 12.276 16.098 12.276 16.4139C12.276 16.7299 12.0213 16.9826 11.7029 16.9826ZM4.25141 16.1612C4.10811 16.1612 3.99666 16.2717 3.99666 16.4139C3.99666 16.5561 4.10811 16.6667 4.25141 16.6667H11.7029C11.8461 16.6667 11.9576 16.5561 11.9576 16.4139C11.9576 16.2717 11.8461 16.1612 11.7029 16.1612H4.25141Z" fill="white"/>
</svg>
