<svg width="30" height="30" viewBox="0 0 30 30" fill="none" xmlns="http://www.w3.org/2000/svg">
<g clip-path="url(#clip0_259_1905)">
<path d="M29.4441 29.8437H0.555738C0.339577 29.8437 0.154297 29.6562 0.154297 29.4375V3.6875C0.154297 3.46875 0.339577 3.28125 0.555738 3.28125H29.4441C29.6602 3.28125 29.8455 3.46875 29.8455 3.6875V29.4375C29.8455 29.6562 29.6602 29.8437 29.4441 29.8437ZM0.957179 29.0312H29.0272V4.09375H0.957179V29.0156V29.0312Z" fill="white"/>
<path d="M29.4442 30H0.555841C0.247041 30 0 29.75 0 29.4375V3.6875C0 3.375 0.247041 3.125 0.555841 3.125H29.4442C29.753 3.125 30 3.375 30 3.6875V29.4375C30 29.75 29.753 30 29.4442 30ZM0.555841 3.42188C0.416881 3.42188 0.308801 3.53125 0.308801 3.67187V29.4219C0.308801 29.5625 0.416881 29.6719 0.555841 29.6719H29.4442C29.5831 29.6719 29.6912 29.5625 29.6912 29.4219V3.6875C29.6912 3.54687 29.5831 3.4375 29.4442 3.4375H0.555841V3.42188ZM29.0427 29.1719H0.957283C0.880082 29.1719 0.802882 29.1094 0.802882 29.0156V4.09375C0.802882 4.01562 0.864642 3.9375 0.957283 3.9375H29.0273C29.1045 3.9375 29.1817 4 29.1817 4.09375V29.0156C29.1817 29.0937 29.1199 29.1719 29.0273 29.1719H29.0427ZM1.11168 28.8594H28.8883V4.25H1.11168V28.875V28.8594Z" fill="white"/>
<path d="M22.3106 6.29688C22.0945 6.29688 21.9092 6.10937 21.9092 5.89062V0.5625C21.9092 0.34375 22.0945 0.15625 22.3106 0.15625C22.5268 0.15625 22.7121 0.34375 22.7121 0.5625V5.89062C22.7121 6.10937 22.5268 6.29688 22.3106 6.29688Z" fill="white"/>
<path d="M22.3107 6.45313C22.0019 6.45313 21.7549 6.20312 21.7549 5.89062V0.5625C21.7549 0.25 22.0019 0 22.3107 0C22.6195 0 22.8666 0.25 22.8666 0.5625V5.89062C22.8666 6.20312 22.6195 6.45313 22.3107 6.45313ZM22.3107 0.3125C22.1718 0.3125 22.0637 0.421875 22.0637 0.5625V5.89062C22.0637 6.03125 22.1718 6.14063 22.3107 6.14063C22.4497 6.14063 22.5578 6.03125 22.5578 5.89062V0.5625C22.5578 0.421875 22.4497 0.3125 22.3107 0.3125Z" fill="white"/>
<path d="M7.47273 6.29688C7.25657 6.29688 7.07129 6.10937 7.07129 5.89062V0.5625C7.07129 0.34375 7.25657 0.15625 7.47273 0.15625C7.68889 0.15625 7.87417 0.34375 7.87417 0.5625V5.89062C7.87417 6.10937 7.68889 6.29688 7.47273 6.29688Z" fill="white"/>
<path d="M7.47283 6.45313C7.16403 6.45313 6.91699 6.20312 6.91699 5.89062V0.5625C6.91699 0.25 7.16403 0 7.47283 0C7.78163 0 8.02867 0.25 8.02867 0.5625V5.89062C8.02867 6.20312 7.78163 6.45313 7.47283 6.45313ZM7.47283 0.3125C7.33387 0.3125 7.22579 0.421875 7.22579 0.5625V5.89062C7.22579 6.03125 7.33387 6.14063 7.47283 6.14063C7.61179 6.14063 7.71987 6.03125 7.71987 5.89062V0.5625C7.71987 0.421875 7.61179 0.3125 7.47283 0.3125Z" fill="white"/>
<path d="M7.84356 22.1875V21.6094C8.02885 21.4531 8.30677 21.2031 8.66189 20.8906C9.03245 20.5781 9.31037 20.3281 9.49565 20.1562C9.68093 19.9844 9.94341 19.7656 10.2368 19.4687C10.5456 19.1875 10.7772 18.9375 10.9625 18.75C11.1323 18.5625 11.333 18.3281 11.5337 18.0781C11.7499 17.8125 11.9043 17.5781 12.0124 17.375C12.2749 16.8594 12.3984 16.3594 12.3984 15.875C12.3984 15.3906 12.2594 14.9687 11.9661 14.625C11.6727 14.2812 11.2249 14.1094 10.5919 14.1094C9.95885 14.1094 9.49565 14.2969 9.15597 14.6719C8.83173 15.0469 8.64645 15.5469 8.61557 16.1562H7.82812C7.87445 15.2656 8.13693 14.5781 8.63101 14.0938C9.12509 13.6094 9.77357 13.3594 10.561 13.3594C11.3485 13.3594 11.9815 13.5781 12.4756 14.0312C12.9697 14.4844 13.2013 15.1094 13.2013 15.9219C13.2013 16.2812 13.1241 16.6406 12.9851 17.0312C12.8461 17.4219 12.6763 17.75 12.491 18.0312C12.3057 18.3125 12.0433 18.6562 11.7036 19.0312C11.3639 19.4062 11.086 19.6875 10.8698 19.8906C10.6537 20.0937 10.3449 20.375 9.94341 20.7344C9.54197 21.0937 9.27949 21.3281 9.17141 21.4375H13.4946V22.1719H7.84356V22.1875Z" fill="white"/>
<path d="M13.4947 22.3437H7.84367C7.76647 22.3437 7.68927 22.2812 7.68927 22.1875V21.6094C7.68927 21.6094 7.70471 21.5156 7.73559 21.5C7.92087 21.3438 8.19879 21.0937 8.55391 20.7813C8.92447 20.4688 9.18695 20.2187 9.38767 20.0469C9.57295 19.875 9.81999 19.6563 10.1288 19.3594C10.4222 19.0781 10.6692 18.8437 10.839 18.6562C11.0089 18.4687 11.1942 18.25 11.4103 17.9844C11.611 17.7344 11.7809 17.5 11.8735 17.2969C12.1206 16.8125 12.2441 16.3281 12.2441 15.875C12.2441 15.4219 12.1206 15.0469 11.8426 14.7188C11.5802 14.4063 11.1633 14.25 10.592 14.25C10.0207 14.25 9.57295 14.4219 9.27959 14.7656C8.97079 15.125 8.80095 15.5938 8.77007 16.1563C8.77007 16.2344 8.69287 16.2969 8.61567 16.2969H7.82823C7.82823 16.2969 7.75103 16.2812 7.72015 16.25C7.68927 16.2187 7.67383 16.1719 7.67383 16.1406C7.72015 15.2188 7.99807 14.4844 8.52303 13.9687C9.04799 13.4531 9.72735 13.2031 10.5457 13.2031C11.364 13.2031 12.0434 13.4375 12.5529 13.9219C13.0778 14.4062 13.3403 15.0781 13.3403 15.9375C13.3403 16.3125 13.2631 16.7031 13.1087 17.0937C12.9698 17.4844 12.7999 17.8281 12.5992 18.125C12.4139 18.4219 12.136 18.7656 11.7963 19.1406C11.4566 19.5156 11.1633 19.8125 10.9626 20.0156C10.7464 20.2188 10.4376 20.5 10.0362 20.8594C9.83543 21.0313 9.68103 21.1719 9.55751 21.2812H13.4947C13.5719 21.2812 13.6491 21.3438 13.6491 21.4375V22.1719C13.6491 22.25 13.5874 22.3281 13.4947 22.3281V22.3437ZM7.98263 22.0313H13.3403V21.6094H9.17151C9.17151 21.6094 9.04799 21.5781 9.03255 21.5156C9.01711 21.4531 9.03255 21.3906 9.06343 21.3437C9.17151 21.2344 9.43399 21 9.85087 20.6406C10.2523 20.2812 10.5611 20 10.7773 19.8125C10.9934 19.6094 11.2714 19.3281 11.5956 18.9531C11.9353 18.5938 12.1978 18.2656 12.3676 17.9844C12.5529 17.7031 12.7073 17.375 12.8462 17C12.9852 16.6406 13.047 16.2812 13.047 15.9375C13.047 15.1719 12.8154 14.5625 12.3676 14.1563C11.9044 13.7344 11.3022 13.5156 10.5611 13.5156C9.81999 13.5156 9.20239 13.75 8.73919 14.2031C8.30687 14.625 8.05983 15.2344 7.99807 16H8.49215C8.53847 15.4219 8.73919 14.9375 9.06343 14.5625C9.41855 14.1562 9.94351 13.9375 10.6074 13.9375C11.2714 13.9375 11.7809 14.125 12.0897 14.5C12.3985 14.875 12.5529 15.3281 12.5529 15.8438C12.5529 16.3594 12.4139 16.875 12.1514 17.4063C12.0279 17.625 11.8735 17.875 11.6419 18.1406C11.4258 18.4062 11.225 18.6406 11.0552 18.8281C10.8854 19.0313 10.6383 19.2656 10.3295 19.5469C10.0207 19.8281 9.77367 20.0625 9.57295 20.2344C9.38767 20.4062 9.10975 20.6406 8.73919 20.9687C8.41495 21.25 8.15247 21.4844 7.96719 21.6406V22L7.98263 22.0313Z" fill="white"/>
<path d="M16.5982 13.8281C17.1077 13.4375 17.7562 13.25 18.5282 13.25C19.3002 13.25 19.9178 13.4688 20.381 13.8906C20.8442 14.3125 21.0758 14.8594 21.0758 15.5156C21.0758 15.9844 20.9369 16.3906 20.6744 16.75C20.4119 17.1094 20.0568 17.3594 19.609 17.5V17.5625C20.1185 17.6875 20.52 17.9688 20.8133 18.375C21.1067 18.7813 21.2457 19.3281 21.2457 19.9844C21.2457 20.6406 21.0141 21.2031 20.5354 21.6719C20.0568 22.1406 19.4083 22.3594 18.5745 22.3594C17.7408 22.3594 17.0614 22.1406 16.5365 21.7187C16.0115 21.2969 15.7027 20.7031 15.6255 19.9375H16.3975C16.4593 20.4219 16.6754 20.8281 17.046 21.1406C17.432 21.4531 17.9261 21.625 18.5437 21.625C19.1613 21.625 19.6399 21.4531 19.9641 21.125C20.2884 20.7969 20.4582 20.3594 20.4582 19.8281C20.4582 19.125 20.2421 18.625 19.7943 18.3281C19.3465 18.0312 18.6826 17.8906 17.8025 17.8906H17.5401V17.1719H17.818C19.4701 17.1719 20.3038 16.6406 20.3038 15.5781C20.3038 15.0781 20.1494 14.6875 19.8406 14.4063C19.5318 14.1094 19.0841 13.9688 18.5128 13.9688C17.9415 13.9688 17.4937 14.0938 17.1541 14.3438C16.8144 14.5938 16.6137 14.9375 16.5365 15.4063H15.7336C15.8108 14.7344 16.1041 14.2031 16.6137 13.8281H16.5982Z" fill="white"/>
<path d="M18.559 22.5156C17.6944 22.5156 16.9687 22.2969 16.4283 21.8437C15.8724 21.3906 15.5482 20.7656 15.4556 19.9687C15.4556 19.9219 15.4556 19.875 15.4864 19.8437C15.5173 19.8125 15.5636 19.7969 15.5945 19.7969H16.3665C16.3665 19.7969 16.5055 19.8594 16.5209 19.9375C16.5672 20.3906 16.768 20.75 17.1231 21.0469C17.4782 21.3438 17.9414 21.4844 18.5281 21.4844C19.1149 21.4844 19.5472 21.3281 19.8405 21.0313C20.1493 20.7344 20.2883 20.3437 20.2883 19.8437C20.2883 19.1875 20.0876 18.7344 19.6861 18.4687C19.2693 18.1875 18.6208 18.0469 17.7716 18.0469H17.5091C17.4319 18.0469 17.3547 17.9844 17.3547 17.8906V17.1719C17.3547 17.0937 17.4165 17.0156 17.5091 17.0156H17.787C19.3465 17.0156 20.1185 16.5313 20.1185 15.5781C20.1185 15.125 19.9795 14.7813 19.7016 14.5156C19.4237 14.25 19.0068 14.125 18.4818 14.125C17.9569 14.125 17.5091 14.2344 17.2003 14.4688C16.8915 14.6875 16.7062 15 16.6444 15.4219C16.6444 15.5 16.5672 15.5469 16.49 15.5469H15.6872C15.6872 15.5469 15.61 15.5313 15.5791 15.5C15.5482 15.4688 15.5328 15.4219 15.5482 15.375C15.6254 14.6563 15.9496 14.0938 16.49 13.6875C17.0305 13.2813 17.7098 13.0781 18.5127 13.0781C19.3156 13.0781 19.9795 13.3125 20.4736 13.75C20.9677 14.2031 21.2147 14.7812 21.2147 15.4844C21.2147 15.9844 21.0757 16.4219 20.7824 16.8125C20.5662 17.1094 20.2883 17.3437 19.9641 17.5C20.3501 17.6562 20.6743 17.9219 20.9213 18.2656C21.2301 18.7031 21.3845 19.2812 21.3845 19.9687C21.3845 20.6562 21.1375 21.2813 20.628 21.7656C20.1339 22.25 19.4391 22.5 18.559 22.5V22.5156ZM15.7798 20.1094C15.8724 20.75 16.1504 21.25 16.6136 21.6094C17.1077 22.0156 17.7716 22.2188 18.559 22.2188C19.3465 22.2188 19.9795 22 20.4118 21.5781C20.8596 21.1406 21.0757 20.625 21.0757 20C21.0757 19.375 20.9368 18.8594 20.6743 18.4687C20.4118 18.0781 20.0413 17.8438 19.5626 17.7188C19.5009 17.7031 19.4545 17.6406 19.4545 17.5625V17.5C19.4545 17.5 19.5009 17.375 19.5626 17.3594C19.9795 17.2344 20.3037 17 20.5508 16.6562C20.7978 16.3125 20.9213 15.9375 20.9213 15.5156C20.9213 14.9063 20.7052 14.4063 20.2883 14.0156C19.856 13.625 19.2693 13.4219 18.5436 13.4219C17.8179 13.4219 17.1849 13.6094 16.7062 13.9687C16.2739 14.2969 16.0114 14.7187 15.9033 15.2812H16.3974C16.49 14.8437 16.7062 14.5 17.0459 14.25C17.4165 13.9844 17.8951 13.8437 18.4973 13.8437C19.0994 13.8437 19.5781 14 19.9177 14.3281C20.2574 14.6406 20.4273 15.0781 20.4273 15.625C20.4273 16.7656 19.5472 17.3594 17.8025 17.375H17.6789V17.7813H17.787C18.698 17.7813 19.3928 17.9375 19.8714 18.25C20.3655 18.5781 20.5971 19.125 20.5971 19.875C20.5971 20.4531 20.4118 20.9219 20.0567 21.2812C19.7016 21.6406 19.1766 21.8281 18.5281 21.8281C17.8797 21.8281 17.3393 21.6563 16.9378 21.3125C16.5672 21 16.3356 20.6094 16.2584 20.1406H15.7798V20.1094Z" fill="white"/>
<path d="M29.4441 8.14062H0.849195C0.633034 8.14062 0.447754 7.95312 0.447754 7.73437C0.447754 7.51562 0.633034 7.32812 0.849195 7.32812H29.4441C29.6603 7.32812 29.8456 7.51562 29.8456 7.73437C29.8456 7.95312 29.6603 8.14062 29.4441 8.14062Z" fill="white"/>
<path d="M29.4443 8.29687H0.849299C0.540498 8.29687 0.293457 8.04687 0.293457 7.73437C0.293457 7.42187 0.540498 7.17188 0.849299 7.17188H29.4443C29.7531 7.17188 30.0001 7.42187 30.0001 7.73437C30.0001 8.04687 29.7531 8.29687 29.4443 8.29687ZM0.849299 7.46875C0.710338 7.46875 0.602258 7.57812 0.602258 7.71875C0.602258 7.85937 0.710338 7.96875 0.849299 7.96875H29.4443C29.5832 7.96875 29.6913 7.85937 29.6913 7.71875C29.6913 7.57812 29.5832 7.46875 29.4443 7.46875H0.849299Z" fill="white"/>
</g>
<defs>
<clipPath id="clip0_259_1905">
<rect width="30" height="30" fill="white"/>
</clipPath>
</defs>
</svg>
