<svg width="31" height="30" viewBox="0 0 31 30" fill="none" xmlns="http://www.w3.org/2000/svg">
<path d="M30.4229 24.3687H0.577613C0.353092 24.3687 0.160645 24.1657 0.160645 23.929V0.608797C0.160645 0.372044 0.353092 0.169113 0.577613 0.169113H30.4229C30.6475 0.169113 30.8399 0.372044 30.8399 0.608797V23.9121C30.8399 24.1488 30.6475 24.3517 30.4229 24.3517V24.3687ZM0.994581 23.4724H29.9899V1.04848H0.994581V23.4724Z" fill="white"/>
<path d="M30.4227 24.5209H0.577341C0.256596 24.5209 0 24.2503 0 23.9121V0.608794C0 0.270575 0.256596 0 0.577341 0H30.4227C30.7434 0 31 0.270575 31 0.608794V23.9121C31 24.2503 30.7434 24.5209 30.4227 24.5209ZM0.577341 0.338219C0.433006 0.338219 0.320745 0.456595 0.320745 0.608794V23.9121C0.320745 24.0643 0.433006 24.1826 0.577341 24.1826H30.4227C30.567 24.1826 30.6793 24.0643 30.6793 23.9121V0.608794C30.6793 0.456595 30.567 0.338219 30.4227 0.338219H0.577341ZM30.0057 23.6415H0.994309C0.914123 23.6415 0.833937 23.5738 0.833937 23.4724V1.04848C0.833937 0.963923 0.898086 0.879368 0.994309 0.879368H29.9897C30.0698 0.879368 30.15 0.947012 30.15 1.04848V23.4724C30.15 23.5569 30.0859 23.6415 29.9897 23.6415H30.0057ZM1.17072 23.3033H29.8614V1.21759H1.15468V23.3033H1.17072Z" fill="white"/>
<path d="M11.6596 29.425C11.4351 29.425 11.2427 29.2221 11.2427 28.9853V23.929C11.2427 23.6922 11.4351 23.4893 11.6596 23.4893C11.8842 23.4893 12.0766 23.6922 12.0766 23.929V28.9853C12.0766 29.2221 11.8842 29.425 11.6596 29.425Z" fill="white"/>
<path d="M11.6594 29.5941C11.3386 29.5941 11.082 29.3235 11.082 28.9853V23.929C11.082 23.5907 11.3386 23.3202 11.6594 23.3202C11.9801 23.3202 12.2367 23.5907 12.2367 23.929V28.9853C12.2367 29.3235 11.9801 29.5941 11.6594 29.5941ZM11.6594 23.6415C11.515 23.6415 11.4028 23.7598 11.4028 23.912V28.9684C11.4028 29.1206 11.515 29.239 11.6594 29.239C11.8037 29.239 11.916 29.1206 11.916 28.9684V23.912C11.916 23.7598 11.8037 23.6415 11.6594 23.6415Z" fill="white"/>
<path d="M19.3569 29.425C19.1324 29.425 18.9399 29.2221 18.9399 28.9853V23.929C18.9399 23.6922 19.1324 23.4893 19.3569 23.4893C19.5814 23.4893 19.7739 23.6922 19.7739 23.929V28.9853C19.7739 29.2221 19.5814 29.425 19.3569 29.425Z" fill="white"/>
<path d="M19.3571 29.5941C19.0364 29.5941 18.7798 29.3235 18.7798 28.9853V23.929C18.7798 23.5907 19.0364 23.3202 19.3571 23.3202C19.6779 23.3202 19.9345 23.5907 19.9345 23.929V28.9853C19.9345 29.3235 19.6779 29.5941 19.3571 29.5941ZM19.3571 23.6415C19.2128 23.6415 19.1005 23.7598 19.1005 23.912V28.9684C19.1005 29.1206 19.2128 29.239 19.3571 29.239C19.5015 29.239 19.6137 29.1206 19.6137 28.9684V23.912C19.6137 23.7598 19.5015 23.6415 19.3571 23.6415Z" fill="white"/>
<path d="M29.9739 20.2931H0.577613C0.353092 20.2931 0.160645 20.0902 0.160645 19.8535C0.160645 19.6167 0.353092 19.4138 0.577613 19.4138H29.9739C30.1984 19.4138 30.3909 19.6167 30.3909 19.8535C30.3909 20.0902 30.1984 20.2931 29.9739 20.2931Z" fill="white"/>
<path d="M29.9736 20.4622H0.577341C0.256596 20.4622 0 20.1917 0 19.8534C0 19.5152 0.256596 19.2446 0.577341 19.2446H29.9736C30.2944 19.2446 30.551 19.5152 30.551 19.8534C30.551 20.1917 30.2944 20.4622 29.9736 20.4622ZM0.577341 19.5829C0.433006 19.5829 0.320745 19.7012 0.320745 19.8534C0.320745 20.0056 0.433006 20.124 0.577341 20.124H29.9736C30.118 20.124 30.2302 20.0056 30.2302 19.8534C30.2302 19.7012 30.118 19.5829 29.9736 19.5829H0.577341Z" fill="white"/>
<path d="M22.9974 29.8309H7.93845C7.71393 29.8309 7.52148 29.628 7.52148 29.3912C7.52148 29.1545 7.71393 28.9515 7.93845 28.9515H22.9974C23.2219 28.9515 23.4144 29.1545 23.4144 29.3912C23.4144 29.628 23.2219 29.8309 22.9974 29.8309Z" fill="white"/>
<path d="M22.9972 30H7.93818C7.61744 30 7.36084 29.7294 7.36084 29.3912C7.36084 29.053 7.61744 28.7824 7.93818 28.7824H22.9972C23.3179 28.7824 23.5745 29.053 23.5745 29.3912C23.5745 29.7294 23.3179 30 22.9972 30ZM7.93818 29.1206C7.79384 29.1206 7.68158 29.239 7.68158 29.3912C7.68158 29.5434 7.79384 29.6618 7.93818 29.6618H22.9972C23.1415 29.6618 23.2538 29.5434 23.2538 29.3912C23.2538 29.239 23.1415 29.1206 22.9972 29.1206H7.93818Z" fill="white"/>
</svg>
