<svg width="172" height="40" viewBox="0 0 172 40" fill="none" xmlns="http://www.w3.org/2000/svg">
<path d="M144.49 24.8946C144.49 24.1838 144.265 23.6301 143.824 23.2261C143.39 22.837 142.821 22.6425 142.155 22.635H128.957V24.745H141.624V31H144.49V24.8871V24.8946Z" fill="white"/>
<path d="M144.49 13.3721V8.66589H141.624V21.146H144.49V15.3025H147.894V13.3721H144.49Z" fill="white"/>
<path d="M166.412 12.0254V17.9961C166.412 19.5898 166.375 20.9216 166.278 21.9616C166.18 23.024 165.904 23.9294 165.447 24.6925H167.864C168.29 23.9892 168.627 23.1063 168.867 22.0214C169.106 20.944 169.218 19.6646 169.218 18.1906V12.0254C169.188 11.3819 168.979 10.8731 168.567 10.5065C168.126 10.1099 167.565 9.91541 166.891 9.91541H153.371V12.0104L166.42 12.0254H166.412Z" fill="white"/>
<path d="M163.383 26.5705V17.5097H160.622V26.5705H160.614H158.22V17.5097H155.459V26.5705H151.576H151.568V28.5832H151.576V28.5907H171.037V28.5832V26.5705H163.383Z" fill="white"/>
<path d="M117.921 8.66589V14.5094H115.033V8.66589H112.332V20.3903C112.017 20.5475 111.583 20.6896 111.037 20.8168C110.484 20.9365 109.893 21.0039 109.242 21.0039H104.879V11.2771H109.885V9.37669H102.051V20.727C102.051 21.4378 102.283 21.999 102.717 22.3955C103.159 22.7921 103.72 22.9866 104.401 22.9866H109.099C109.795 22.9866 110.416 22.8968 110.947 22.7472C111.411 22.6125 111.913 22.3731 112.324 22.0813V29.9899H115.025V16.5819H117.913V29.9824H120.614V8.66589H117.913H117.921Z" fill="white"/>
<path d="M92.3843 8.72571H95.4744C95.4744 8.72571 95.4444 29.9449 95.4744 29.9674H92.4217C92.4217 29.9674 92.4217 8.73319 92.3843 8.72571ZM85.4035 11.307V13.4619C85.4035 15.4596 85.8898 17.2328 87.042 18.7667C88.1943 20.308 89.4737 21.2133 90.8729 21.4677L89.5111 22.9417C88.4861 22.6125 87.2665 22.2833 86.0694 21.2657C84.8648 20.2481 84.1016 19.051 83.7649 18.1457C83.4207 19.0734 82.6501 20.2631 81.4529 21.2582C80.2483 22.2533 79.0437 22.6424 78.0112 22.9492L76.6494 21.4752C78.0635 21.2133 79.343 20.3155 80.4877 18.7742C81.64 17.2403 82.1188 15.4596 82.1188 13.4694V11.3145C82.1188 11.3145 77.9962 11.322 77.9812 11.337V9.42154H89.5261V11.3295L85.396 11.307H85.4035Z" fill="white"/>
<path d="M137.891 11.9057H139.11V10.0202H134.292V8H131.336V10.0202H126.533V11.9057H129.638C128.957 12.3471 128.418 12.9083 128.014 13.5891C127.61 14.27 127.408 15.0032 127.408 15.7963C127.408 17.1356 127.939 18.2879 129.002 19.2531C130.057 20.2108 131.336 20.6896 132.818 20.6896C134.299 20.6896 135.594 20.2108 136.649 19.2531C137.703 18.2954 138.227 17.1431 138.227 15.7963C138.227 15.0032 138.025 14.27 137.621 13.5891C137.247 12.9531 136.738 12.4219 136.117 11.988C136.08 11.958 136.042 11.9356 136.005 11.9057H137.891ZM134.673 17.8689C134.157 18.4525 133.536 18.7443 132.825 18.7443C132.114 18.7443 131.516 18.4525 130.992 17.8689C130.468 17.2853 130.206 16.5894 130.206 15.7963C130.206 15.0032 130.468 14.2999 130.992 13.7238C131.516 13.1402 132.129 12.8484 132.825 12.8484C133.521 12.8484 134.164 13.1402 134.673 13.7238C135.189 14.3074 135.444 15.0032 135.444 15.7963C135.444 16.5894 135.189 17.2853 134.673 17.8689Z" fill="white"/>
<path d="M71.8535 8.72574H68.7259L68.7334 10.9779H65.1869V9.2869H54.5848L54.5698 17.1132C54.5698 17.809 54.7718 18.3477 55.1684 18.7293C55.5724 19.1109 56.1336 19.3054 56.8519 19.3054H65.1944V17.3676H68.7409V20.4053H71.8385C71.8385 20.4053 71.8235 8.73323 71.8609 8.71826L71.8535 8.72574ZM62.1043 17.4199H57.6674V11.1799H62.1043V17.4199ZM68.7409 15.295H65.1944V13.0504H68.7409V15.295Z" fill="white"/>
<path d="M69.7362 22.2609C68.584 21.2957 67.1848 20.8093 65.5388 20.8093C63.8927 20.8093 62.5085 21.2957 61.3488 22.2609C60.1816 23.226 59.6055 24.4082 59.6055 25.7924C59.6055 27.1766 60.1816 28.3513 61.3488 29.3314C62.5085 30.2966 63.9002 30.783 65.5388 30.783C67.1773 30.783 68.584 30.2966 69.7362 29.3314C70.8959 28.3588 71.4721 27.1766 71.4721 25.7924C71.4721 24.4082 70.8959 23.226 69.7362 22.2609ZM67.4916 28.037C66.9529 28.673 66.3094 28.9873 65.5388 28.9873C64.7681 28.9873 64.1321 28.6655 63.6009 28.037C63.0622 27.4011 62.7928 26.6528 62.7928 25.7924C62.7928 24.932 63.0622 24.1837 63.6009 23.5328C64.1321 22.8819 64.7831 22.5601 65.5388 22.5601C66.2945 22.5601 66.9529 22.8819 67.4916 23.5328C68.0228 24.1837 68.2847 24.9394 68.2847 25.7924C68.2847 26.6454 68.0153 27.4011 67.4916 28.037Z" fill="white"/>
<path d="M17.4387 11.0645C17.5759 11.0334 18.5055 9.86793 18.2035 8.62861C17.8701 7.27274 16.3561 6.65503 16.3561 6.65503C16.3561 6.65503 15.3049 7.92154 15.6618 9.37065C15.9678 10.6061 17.2582 11.1072 17.4387 11.0645Z" fill="#A1CBED"/>
<path d="M25.2716 8.78793C25.1539 8.71023 23.6556 8.81901 22.9417 9.87573C22.1573 11.0335 22.7182 12.5564 22.7182 12.5564C22.7182 12.5564 24.3695 12.467 25.2088 11.2316C25.9227 10.1749 25.4285 8.89282 25.2677 8.78793H25.2716Z" fill="#A1CBED"/>
<path d="M11.4729 19.4367C11.5356 19.3124 11.2336 17.8555 10.0844 17.2883C8.82138 16.6667 7.37012 17.4165 7.37012 17.4165C7.37012 17.4165 7.67214 19.0288 9.0175 19.6931C10.1667 20.2603 11.3866 19.6076 11.4729 19.4367Z" fill="#A1CBED"/>
<path d="M11.1198 27.4437C11.2571 27.4826 12.6456 26.9231 12.9947 25.6994C13.379 24.3552 12.371 23.0809 12.371 23.0809C12.371 23.0809 10.8256 23.6714 10.4138 25.1011C10.0647 26.3248 10.9354 27.3932 11.1198 27.4437Z" fill="#A1CBED"/>
<path d="M28.3467 19.7164C28.3467 19.8562 29.3037 21.0023 30.5903 20.9673C31.9984 20.9324 32.928 19.5959 32.928 19.5959C32.928 19.5959 31.9003 18.31 30.3981 18.3527C29.1155 18.3877 28.3467 19.5299 28.3506 19.7164H28.3467Z" fill="#A1CBED"/>
<path d="M26.503 23.1468C26.3775 23.209 25.7107 24.5377 26.2677 25.6876C26.8796 26.9464 28.4877 27.2378 28.4877 27.2378C28.4877 27.2378 29.2487 25.7809 28.5976 24.4406C28.0406 23.2945 26.6717 23.0691 26.503 23.1507V23.1468Z" fill="#A1CBED"/>
<path d="M18.6937 17.6729C18.5878 17.5835 17.0855 17.5291 16.2619 18.5042C15.3558 19.5726 15.748 21.146 15.748 21.146C15.748 21.146 17.3993 21.2354 18.3681 20.0971C19.1958 19.122 18.8388 17.7933 18.6937 17.6729Z" fill="#A1CBED"/>
<path d="M10.7311 12.7351C10.5938 12.7739 9.69952 13.9628 10.0329 15.1904C10.4055 16.5385 11.9352 17.1135 11.9352 17.1135C11.9352 17.1135 12.9511 15.8198 12.5589 14.3823C12.2216 13.1547 10.9154 12.6846 10.735 12.7351H10.7311Z" fill="white"/>
<path d="M32.2645 24.3823C32.339 24.2619 32.1821 22.7856 31.0956 22.1096C29.8993 21.3675 28.3813 21.9736 28.3813 21.9736C28.3813 21.9736 28.5226 23.6053 29.7973 24.3978C30.8838 25.0738 32.1625 24.5377 32.2645 24.3823Z" fill="white"/>
<path d="M20.4863 15.7188C20.5059 15.8587 21.5728 16.8999 22.8476 16.7367C24.2439 16.558 25.0323 15.1361 25.0323 15.1361C25.0323 15.1361 23.8752 13.9628 22.3847 14.1532C21.11 14.3163 20.4628 15.5323 20.4902 15.7188H20.4863Z" fill="white"/>
<path d="M29.3629 17.8905C29.4962 17.9332 30.9004 17.401 31.277 16.185C31.6928 14.8485 30.7082 13.5548 30.7082 13.5548C30.7082 13.5548 29.1511 14.1104 28.7118 15.5362C28.3352 16.7522 29.1864 17.8361 29.3668 17.8944L29.3629 17.8905Z" fill="white"/>
<path d="M11.3235 20.7071C11.2254 20.6061 9.73884 20.4002 8.81709 21.2859C7.80513 22.2572 8.03263 23.8617 8.03263 23.8617C8.03263 23.8617 9.66824 24.1181 10.7469 23.0847C11.6686 22.1989 11.4529 20.843 11.3235 20.7071Z" fill="white"/>
<path d="M14.6299 23.7762C14.4926 23.7957 13.4492 24.864 13.6336 26.1267C13.8297 27.5097 15.277 28.2673 15.277 28.2673C15.277 28.2673 16.4459 27.1057 16.2341 25.6333C16.0537 24.3745 14.8181 23.749 14.6299 23.7762Z" fill="white"/>
<path d="M13.8539 21.1539C13.9951 21.15 15.1522 20.2021 15.1169 18.9317C15.0816 17.537 13.7323 16.6162 13.7323 16.6162C13.7323 16.6162 12.434 17.6341 12.4771 19.122C12.5085 20.3963 13.6656 21.1539 13.8539 21.15V21.1539Z" fill="white"/>
<path d="M19.8153 15.4701C19.9526 15.4429 20.941 14.3279 20.7017 13.0769C20.4389 11.7055 18.9602 11.014 18.9602 11.014C18.9602 11.014 17.8463 12.2261 18.1248 13.6869C18.364 14.9378 19.627 15.505 19.8153 15.4701Z" fill="white"/>
<path d="M18.3996 15.7653C18.431 15.6293 17.8034 14.2812 16.5522 13.9899C15.1794 13.6713 13.9399 14.7319 13.9399 14.7319C13.9399 14.7319 14.6067 16.2315 16.0698 16.5734C17.321 16.8648 18.3565 15.9518 18.3996 15.7692V15.7653Z" fill="white"/>
<path d="M16.4112 12.9293C16.4779 12.805 16.1994 11.3442 15.0619 10.7576C13.8107 10.1127 12.3477 10.8392 12.3477 10.8392C12.3477 10.8392 12.6222 12.4553 13.9558 13.1391C15.0933 13.7257 16.3249 13.0925 16.4151 12.9254L16.4112 12.9293Z" fill="white"/>
<path d="M24.5225 13.6597C24.5695 13.7918 25.8443 14.5766 27.0484 14.1415C28.3742 13.6636 28.8252 12.1057 28.8252 12.1057C28.8252 12.1057 27.4367 11.2122 26.0247 11.7211C24.8166 12.1562 24.4558 13.4849 24.5185 13.6597H24.5225Z" fill="white"/>
<path d="M21.545 17.6146C21.6352 17.5059 23.106 17.2145 24.0827 18.042C25.1535 18.9511 25.0241 20.5672 25.0241 20.5672C25.0241 20.5672 23.4081 20.9208 22.2667 19.9534C21.29 19.1259 21.4234 17.7584 21.545 17.6146Z" fill="white"/>
<path d="M26.531 19.7902C26.6683 19.8174 28.0058 19.1375 28.2451 17.8866C28.5079 16.5151 27.39 15.3341 27.39 15.3341C27.39 15.3341 25.9034 16.0567 25.621 17.5175C25.3818 18.7685 26.3427 19.7552 26.531 19.7902Z" fill="white"/>
<path d="M23.4714 28.1625C23.6086 28.1897 24.9422 27.5098 25.1854 26.2588C25.4482 24.8874 24.3303 23.7064 24.3303 23.7064C24.3303 23.7064 22.8438 24.429 22.5614 25.8897C22.3182 27.1407 23.287 28.1275 23.4714 28.1625Z" fill="white"/>
<path d="M20.6083 11.2627C20.7495 11.2743 22.0007 10.4507 22.0987 9.18421C22.2086 7.79338 20.9652 6.74054 20.9652 6.74054C20.9652 6.74054 19.5688 7.61855 19.4512 9.10262C19.3531 10.373 20.42 11.2471 20.6083 11.2627Z" fill="white"/>
<path d="M27.507 21.1811C27.4717 20.9285 27.2912 20.777 27.0873 20.8314C24.7456 21.6744 23.2944 21.826 20.9998 22.0358L20.6154 21.9464C20.4193 21.9347 20.3526 21.7755 20.3252 21.6706L20.2193 17.0163C20.2193 16.6084 20.0545 16.2743 19.8467 16.2743C19.6388 16.2743 19.474 16.6084 19.474 17.0163L19.2544 21.6356C19.0465 22.2844 18.4738 22.23 18.4738 22.23V22.2417C16.4185 22.2883 15.3713 22.3155 13.2336 21.7521C12.9355 21.6783 12.7041 21.6162 12.7041 21.8298C12.708 22.0474 12.9512 22.3699 13.2611 22.4476C15.7086 23.4344 16.901 23.2479 19.1524 23.7879L18.6386 31.8765C18.5954 32.432 18.262 32.5563 18.262 32.5563H21.141C20.9881 32.4864 20.8429 32.1368 20.7723 31.9503L20.3683 23.7296C22.9649 23.1779 24.577 22.6962 27.1932 21.7055C27.3971 21.655 27.5344 21.4375 27.503 21.1811H27.507Z" fill="white"/>
<path d="M32.7001 31.9658L33.308 32.5563C33.4688 32.7156 33.6022 32.8516 33.6963 32.9642C33.7944 33.0808 33.8611 33.1973 33.8925 33.3178L34.1317 33.073C34.1043 32.9603 34.0454 32.8399 33.9591 32.7078C33.8728 32.5757 33.7552 32.4397 33.6061 32.2921C33.6061 32.2921 32.9825 31.6861 32.9786 31.6822C32.9119 31.6239 32.8374 31.5928 32.7589 31.5967C32.6765 31.6006 32.5981 31.6394 32.5314 31.7055L31.1821 33.0652L31.3939 33.2711L32.6961 31.958L32.7001 31.9658Z" fill="white"/>
<path d="M33.8771 33.7102L32.9554 32.8127L32.6808 33.0886L33.6026 33.986L33.3633 34.2269L32.4416 33.3333L32.167 33.6092L33.0887 34.5066L32.7004 34.899L32.9044 35.0971L34.8499 33.1391H34.8459L34.642 32.9371L33.8771 33.7102Z" fill="white"/>
<path d="M20.7407 36.9853V37.8089H20.3289V36.9853H19.9445V38.6403C19.8974 38.6636 19.8386 38.683 19.7601 38.7025C19.6817 38.718 19.5954 38.7297 19.5052 38.7297H18.8815V37.3583H19.5954V37.0902H18.4814V38.6908C18.4814 38.7918 18.5128 38.8695 18.5756 38.9278C18.6383 38.9822 18.7168 39.0094 18.8148 39.0094H19.4856C19.5836 39.0094 19.6738 38.9977 19.7484 38.9744C19.815 38.955 19.8856 38.92 19.9445 38.8812V40.0001H20.3289V38.1081H20.7407V40.0001H21.1251V36.9892H20.7407V36.9853Z" fill="white"/>
<path d="M13.9319 35.8625L14.332 36.0451C14.332 36.0451 13.0572 38.7607 13.0612 38.7685L12.665 38.5859C12.665 38.5859 13.9358 35.8664 13.9319 35.8625ZM12.8729 35.781L12.7435 36.0568C12.6219 36.3132 12.5787 36.5696 12.6376 36.8338C12.6964 37.1019 12.8062 37.2922 12.971 37.4088L12.7042 37.5175C12.5944 37.4126 12.4532 37.3 12.3591 37.098C12.2649 36.8959 12.2375 36.6978 12.2453 36.5618C12.1473 36.659 11.9747 36.7677 11.759 36.8221C11.5432 36.8804 11.3628 36.8571 11.2098 36.8338L11.1235 36.5657C11.3236 36.6162 11.5432 36.5774 11.7825 36.4453C12.0217 36.3171 12.1943 36.1189 12.312 35.8625L12.4414 35.5867C12.4414 35.5867 11.908 35.3419 11.9041 35.3458L12.0178 35.1011L13.5122 35.7848L13.3985 36.0296L12.865 35.781H12.8729Z" fill="white"/>
<path d="M28.5187 37.4399C28.4834 37.3466 28.4246 37.2845 28.3461 37.2534C28.2677 37.2223 28.1814 37.2262 28.0912 37.2611L26.334 37.9216L26.4399 38.2013L28.1265 37.5681L28.4442 38.3917L28.8247 38.2479L28.5148 37.4399H28.5187Z" fill="white"/>
<path d="M27.9352 35.9207L27.6998 35.2991L27.3154 35.4429L27.9469 37.0901L28.3313 36.9464L28.0332 36.1733L28.4882 36.0023L28.3901 35.7498L27.9352 35.9207Z" fill="white"/>
<path d="M26.9812 36.0567L27.142 35.9946L27.0479 35.7459L26.4046 35.9868L26.3026 35.7188L25.9104 35.8664L25.9575 35.9907L26.0124 36.1306L25.373 36.3714L25.4672 36.6201L25.628 36.5579L25.879 36.4647C25.8123 36.5579 25.7692 36.6589 25.7457 36.7677C25.7261 36.8765 25.7378 36.9853 25.777 37.0902C25.8437 37.2689 25.9732 37.3932 26.1614 37.467C26.3497 37.5408 26.5458 37.5408 26.7419 37.467C26.942 37.3932 27.0871 37.265 27.1812 37.0863C27.2715 36.9076 27.2832 36.7289 27.2165 36.5501C27.1773 36.4452 27.1146 36.3598 27.0243 36.2898C26.942 36.2238 26.8478 36.1811 26.7419 36.1539C26.7419 36.1539 26.7302 36.15 26.7223 36.15L26.9694 36.0567H26.9734H26.9812ZM26.8557 37.0047C26.8165 37.1096 26.7498 37.1756 26.6517 37.2145C26.5576 37.2494 26.4635 37.2417 26.3654 37.1912C26.2673 37.1407 26.1967 37.063 26.1575 36.9581C26.1183 36.8532 26.1183 36.7483 26.1575 36.6434C26.1967 36.5385 26.2634 36.4686 26.3576 36.4375C26.4556 36.4025 26.5497 36.4103 26.6478 36.4608C26.7459 36.5113 26.8125 36.589 26.8557 36.6939C26.8949 36.7988 26.8988 36.9037 26.8557 37.0047Z" fill="white"/>
<path d="M8.92701 33.0264L8.61323 32.7118L8.38573 32.9371L8.03272 32.5797L8.2053 32.4126L7.14628 31.3442L6.35004 32.1174C6.27944 32.1873 6.24414 32.2611 6.24414 32.3388C6.24414 32.4165 6.28336 32.4942 6.35397 32.5641L7.1855 33.4033L7.38162 33.2129L7.73855 33.5703L7.42868 33.8695L7.73855 34.1803C7.73855 34.1803 8.92309 33.0226 8.92701 33.0264ZM7.06783 32.906L6.62461 32.4592L7.26002 31.8415L7.70325 32.2883L7.06783 32.906ZM7.94643 33.3644L7.59342 33.007L7.82092 32.7856L8.17393 33.143L7.94643 33.3644Z" fill="white"/>
<path d="M7.34282 34.1531C7.32321 33.9395 7.23299 33.753 7.07218 33.5859C6.91136 33.4228 6.71917 33.3295 6.50736 33.3101C6.29164 33.2907 6.11513 33.3489 5.97393 33.4849C5.83272 33.6209 5.77389 33.7957 5.78958 34.0094C5.80919 34.2192 5.8994 34.4096 6.06022 34.5766C6.22496 34.7398 6.41323 34.833 6.62896 34.8563C6.84076 34.8758 7.02119 34.8175 7.16239 34.6815C7.3036 34.5455 7.36635 34.3707 7.35066 34.157L7.34282 34.1531ZM6.5309 34.495C6.41323 34.5067 6.31517 34.4717 6.24065 34.394C6.16612 34.3163 6.13474 34.2231 6.14259 34.1026C6.15435 33.9861 6.20142 33.8851 6.28771 33.7996C6.374 33.7141 6.47991 33.6675 6.59758 33.6597C6.71917 33.6481 6.81331 33.6831 6.89175 33.7569C6.96628 33.8346 7.00158 33.9317 6.98589 34.0482C6.97412 34.1648 6.92313 34.2658 6.83684 34.3513C6.75055 34.4368 6.64857 34.4834 6.5309 34.4911V34.495Z" fill="white"/>
<path d="M0.941359 21.9696C0.941359 21.9696 0.862912 21.9696 0.764854 21.9696C0.79231 21.9619 0.851145 21.9425 0.851145 21.9425L0.949203 21.9075L2.76916 21.247L2.74171 20.9129L0.745242 20.5089C0.745242 20.5089 0.713864 20.505 0.670718 20.4972C0.702097 20.4972 0.764854 20.4856 0.764854 20.4856L2.68287 20.1825L2.65149 19.7785L2.59658 19.7863L0 20.2097L0.0431457 20.742L1.82388 21.0955C1.82388 21.0955 1.92979 21.1111 2.03177 21.1266C1.91802 21.1616 1.80035 21.1965 1.80035 21.1965L0.121592 21.8026L0.164738 22.331L2.85153 22.3543L2.82015 21.9619H0.933514L0.941359 21.9696Z" fill="white"/>
<path d="M0.411963 15.7771L0.400196 15.8587L0.341361 16.2355L1.26703 16.8843C1.26703 16.8843 1.36901 16.9543 1.44354 17.0048C1.35332 17.032 1.23957 17.063 1.23957 17.063L0.164856 17.4049L0.090332 17.8905C0.090332 17.8905 1.79655 17.2923 1.82008 17.2845C1.84361 17.2845 2.86734 17.4399 2.86734 17.4399L2.9301 17.0281C2.9301 17.0281 1.92598 16.8766 1.90245 16.8766C1.88284 16.861 0.415885 15.781 0.415885 15.781L0.411963 15.7771Z" fill="white"/>
<path d="M3.01242 12.2378C2.61626 12.0863 2.29463 12.0474 2.0083 12.1135C1.76904 12.1679 1.45525 12.3233 1.29052 12.7467C1.05518 13.3606 1.40034 13.9278 2.18873 14.2269C2.60842 14.3862 2.98888 14.4134 3.2909 14.3046C3.56939 14.2036 3.77727 13.9977 3.8871 13.7141C3.98516 13.4538 3.98516 13.2401 3.8871 12.9837C3.74982 12.6418 3.48702 12.4165 3.01242 12.2378ZM3.57723 13.5781C3.50271 13.7646 3.3262 13.9278 3.16147 13.955C2.97319 13.986 2.63587 13.9239 2.29071 13.7918C2.00046 13.683 1.81611 13.5703 1.69452 13.4344C1.57292 13.2945 1.54155 13.0692 1.61999 12.8672C1.70628 12.6457 1.88671 12.5097 2.11421 12.4903C2.30248 12.4748 2.54958 12.5292 2.90259 12.6613C3.31836 12.8205 3.46349 12.9487 3.54978 13.0925C3.63999 13.2401 3.65176 13.3955 3.58116 13.5742L3.57723 13.5781Z" fill="white"/>
<path d="M3.8873 8.10023L3.69119 8.3916L4.90319 9.18026C4.90319 9.18026 5.15422 9.33178 5.35033 9.44833C5.18952 9.42113 5.02478 9.39394 5.02478 9.39394L3.15383 9.19192L2.91064 9.55322L5.13068 11.0256L5.36602 10.6799L4.07558 9.8446C4.07558 9.8446 3.87554 9.72416 3.70688 9.62315C3.82062 9.63869 3.95791 9.65812 4.11872 9.67366L5.91907 9.86402L6.14264 9.52991L3.92261 8.0575L3.89515 8.10023H3.8873Z" fill="white"/>
<path d="M7.05224 6.37535L7.35818 6.57348C7.35818 6.57348 7.66804 6.2821 7.72688 6.22771C7.78571 6.28599 8.17402 6.69003 8.21325 6.73277C8.18187 6.83766 8.11519 6.94256 8.01321 7.03968C7.84062 7.20285 7.59352 7.29221 7.41701 7.25724C7.22482 7.21839 6.99732 7.06688 6.77375 6.83378C6.60901 6.66284 6.48742 6.48801 6.40505 6.3093C6.25993 5.99073 6.40505 5.75374 6.55802 5.61388C6.69138 5.48956 6.82866 5.4274 7.07185 5.38855L7.11892 5.38078L7.07577 5.05444H7.0287C6.75806 5.06998 6.51488 5.17488 6.31092 5.36913C6.10696 5.56338 5.99713 5.78094 5.97752 6.03346C5.94222 6.39865 6.09911 6.75608 6.4482 7.12127C6.76591 7.44761 7.06793 7.61466 7.40132 7.63409C7.70334 7.65351 7.9936 7.54085 8.23678 7.31163C8.4329 7.12515 8.58587 6.87263 8.64078 6.65118L8.64862 6.62399L7.7661 5.70712L7.05616 6.37923L7.05224 6.37535Z" fill="white"/>
<path d="M10.4726 4.91842L9.2763 3.10413L9.23316 3.13132L8.93506 3.32557L10.1353 5.14375C10.2765 5.35743 10.3236 5.45844 10.3314 5.54391C10.3432 5.64492 10.3 5.77701 10.2177 5.88579L10.1784 5.94018L10.504 6.04896L10.5275 6.02176C10.6648 5.84694 10.7354 5.65657 10.7236 5.47786C10.7158 5.3652 10.6805 5.25642 10.6177 5.14764L10.4726 4.91454V4.91842Z" fill="white"/>
<path d="M11.8338 1.74049L11.5122 1.88424L12.6261 4.29683L12.9909 4.13366L11.877 1.72107L11.8338 1.74049Z" fill="white"/>
<path d="M19.275 0.00388491H19.224L18.871 0.03885L19.02 1.82207C19.0396 2.05517 19.0279 2.13675 18.969 2.23388C18.9102 2.331 18.7651 2.39316 18.5689 2.4087C18.3022 2.43201 18.1296 2.34654 18.0747 2.1756C18.0551 2.10567 18.0316 1.95804 18.0198 1.79876L17.8786 0.120435L17.4746 0.1554L17.6276 1.98135C17.6511 2.27273 17.6786 2.32712 17.7452 2.43978C17.8982 2.69231 18.1728 2.80109 18.5846 2.76612C18.9023 2.73893 19.1181 2.65734 19.275 2.49806C19.4319 2.33877 19.4632 2.19891 19.4319 1.81818L19.2789 0L19.275 0.00388491Z" fill="white"/>
<path d="M23.0748 1.69392C23.0748 1.69392 23.0474 1.9853 23.0238 2.20674C22.9768 2.05134 22.9336 1.89206 22.9336 1.89206L22.2982 0.136034L21.8628 0.0777588L21.855 0.128264L21.498 2.70014L21.9138 2.75841L22.1099 1.24326C22.1099 1.24326 22.1295 1.01016 22.1492 0.81591C22.1923 0.948 22.2394 1.08786 22.2825 1.20829L22.8944 2.89439L23.2945 2.94878L23.6592 0.330284L23.2592 0.275894L23.0748 1.69781V1.69392Z" fill="white"/>
<path d="M26.1621 1.01787L25.3267 3.48485L25.7032 3.60917L26.5583 1.09557L26.1778 0.971252L26.1621 1.01787Z" fill="white"/>
<path d="M28.9351 4.02493C28.9351 4.02493 28.79 4.16479 28.6762 4.28134C28.7076 4.16868 28.7429 4.02493 28.7665 3.89284L29.0959 2.16401L28.7115 1.95422L28.6998 2.02415L28.2056 4.70869L28.535 4.8874L30.6335 3.00706L30.2648 2.80504L28.939 4.02882L28.9351 4.02493Z" fill="white"/>
<path d="M32.5904 4.89901C32.6571 4.95728 33.3867 5.575 33.3867 5.575L33.6612 5.34578L32.5081 4.36676L32.4767 4.40561L30.7783 6.36754L31.9511 7.36598L32.1904 7.09015C32.1904 7.09015 31.398 6.41804 31.3314 6.35588C31.3863 6.29372 31.8177 5.79256 31.8766 5.72651C31.9433 5.78479 32.5473 6.29761 32.5473 6.29761L32.7866 6.02177C32.7866 6.02177 32.1825 5.50895 32.1158 5.45456C32.1707 5.3924 32.5394 4.96505 32.5944 4.90289L32.5904 4.89901Z" fill="white"/>
<path d="M36.0534 8.27905C36.0613 8.0848 35.9789 7.89444 35.7789 7.63803L35.3827 7.12909L35.3435 7.16017L33.2646 8.74525L33.5157 9.06382C33.5157 9.06382 34.3315 8.44222 34.4217 8.37229C34.4374 8.40337 34.461 8.43445 34.461 8.46942C34.461 8.50438 34.4531 8.54712 34.4413 8.60539C34.3982 8.79187 34.3237 9.03663 34.2139 9.34743L34.0452 9.73981L34.0609 9.76701L34.3551 10.1439L34.6022 9.40959L34.6571 9.23476L34.712 9.06382C34.7316 8.99001 34.7551 8.889 34.7708 8.78022C34.8924 8.91231 35.0336 9.00166 35.1984 9.02109C35.3906 9.0444 35.5867 8.98612 35.7671 8.85015C36.0142 8.66367 36.0573 8.41503 36.0573 8.28682L36.0534 8.27905ZM35.1591 8.63259C35.0415 8.61705 34.9356 8.53546 34.8022 8.36452C34.8022 8.36452 34.712 8.25186 34.6649 8.1897C34.7316 8.13919 35.2807 7.71961 35.3474 7.66911C35.3905 7.7235 35.4965 7.86336 35.4965 7.86336C35.5749 7.96048 35.618 8.04595 35.6455 8.13142C35.6533 8.15862 35.6573 8.18581 35.6573 8.21689C35.6573 8.32567 35.6024 8.44222 35.5082 8.51215C35.3827 8.60928 35.2611 8.65201 35.1591 8.63259Z" fill="white"/>
<path d="M37.0813 12.502C37.1479 12.3544 37.1597 12.2106 37.1205 11.9581L37.0773 11.6551C37.0263 11.321 37.1087 11.2083 37.246 11.1461C37.3401 11.0995 37.4303 11.0956 37.5127 11.1228C37.6186 11.1617 37.7128 11.2549 37.7834 11.3987C37.8736 11.5852 37.8893 11.7406 37.854 12.0242L37.8461 12.0747L38.203 12.1096L38.2109 12.063C38.258 11.76 38.2187 11.4919 38.0932 11.2316C37.9755 10.9907 37.7951 10.8159 37.5794 10.7421C37.3911 10.6761 37.1911 10.6916 36.9989 10.781C36.842 10.8548 36.7243 10.9752 36.6655 11.1306C36.6106 11.2782 36.6184 11.422 36.6537 11.6629L36.6969 11.927C36.7439 12.2262 36.6773 12.4049 36.489 12.4942C36.3635 12.5525 36.2458 12.5486 36.1203 12.4865C36.0065 12.4282 35.9438 12.3544 35.8653 12.1912C35.7555 11.9659 35.7281 11.7561 35.7712 11.5075L35.779 11.4531L35.3986 11.4259V11.4725C35.3594 11.7794 35.4064 12.0552 35.5437 12.335C35.6496 12.5525 35.7712 12.6963 35.9556 12.805C36.2105 12.9527 36.4851 12.9721 36.7165 12.8633C36.8734 12.7895 37.0107 12.6496 37.0773 12.4942L37.0813 12.502Z" fill="white"/>
<path d="M39.2352 14.3668L39.1842 14.3784L36.6504 15.0661L36.7563 15.4507L39.3411 14.7475L39.2352 14.3668Z" fill="white"/>
<path d="M37.2266 17.9798L37.2658 18.3721C37.2658 18.3721 39.478 18.1624 39.5721 18.1546C39.58 18.2401 39.6388 18.8384 39.6388 18.8384L39.9996 18.8306L39.8271 17.0474H39.7761L39.4662 17.0823C39.4662 17.0823 39.525 17.6806 39.5329 17.7622C39.4388 17.77 37.2266 17.9798 37.2266 17.9798Z" fill="white"/>
<path d="M39.9488 21.387L39.9998 20.9014L39.9213 20.9324C39.9213 20.9324 38.321 21.5696 38.2975 21.5812C38.2739 21.5812 37.2424 21.4686 37.2424 21.4686L37.1992 21.8804C37.1992 21.8804 38.2112 21.9892 38.2347 21.9892C38.2543 22.0047 39.7683 23.0226 39.7683 23.0226L39.8193 22.5641L38.8662 21.9542C38.8662 21.9542 38.7642 21.892 38.6819 21.8415C38.7721 21.8105 38.8858 21.7755 38.8858 21.7755L39.9448 21.3909L39.9488 21.387Z" fill="white"/>
<path d="M3.81297 27.9021C3.81297 28.1935 3.57371 28.4305 3.27953 28.4305C2.98536 28.4305 2.74609 28.1935 2.74609 27.9021C2.74609 27.6108 2.98536 27.3738 3.27953 27.3738C3.57371 27.3738 3.81297 27.6108 3.81297 27.9021Z" fill="white"/>
<path d="M37.2783 27.9021C37.2783 28.1935 37.039 28.4305 36.7449 28.4305C36.4507 28.4305 36.2114 28.1935 36.2114 27.9021C36.2114 27.6108 36.4507 27.3738 36.7449 27.3738C37.039 27.3738 37.2783 27.6108 37.2783 27.9021Z" fill="white"/>
</svg>
